PathFileType	4	(X/Y/Z)	C:\Users\Basilio\Documents\Thesis Gigler\squatting_fais\c3dfiles\038\SJ_pre3\markers_experimental.trc
DataRate	CameraRate	NumFrames	NumMarkers	Units	OrigDataRate	OrigDataStartFrame	OrigNumFrames
200.000000	200.000000	4	61	mm	200.000000	1544	2059
Frame#	Time	FHD			LBHD			RBHD			C7			T10			CLAV			LSHO			LUUPA			LMUPA			LDUPA			LLEP			LMEP			LRAD			LUL			LRFIN			RSHO			RUPA1			RMUPA			RDUPA			RLEP			RMEP			RRAD			RUL			RUFIN			LASI			RASI			USACR			LSACR			RSACR			LTHI1			LTHI2			LTHI3			LTHI4			LLFC			LMFC			LTIB1			LTIB2			LTIB3			LTIB4			LLMAL			LMMAL			LHEE			LMT1			LMT2			LMT5			RTHI			RTHI2			RTHI3			RTHI4			RLFC			RMFC			RTIB1			RTIB2			RTIB3			RTIB4			RLMAL			RMMAL			RHEE			RMT1			RMT2			RMT5			
		X1	Y1	Z1	X2	Y2	Z2	X3	Y3	Z3	X4	Y4	Z4	X5	Y5	Z5	X6	Y6	Z6	X7	Y7	Z7	X8	Y8	Z8	X9	Y9	Z9	X10	Y10	Z10	X11	Y11	Z11	X12	Y12	Z12	X13	Y13	Z13	X14	Y14	Z14	X15	Y15	Z15	X16	Y16	Z16	X17	Y17	Z17	X18	Y18	Z18	X19	Y19	Z19	X20	Y20	Z20	X21	Y21	Z21	X22	Y22	Z22	X23	Y23	Z23	X24	Y24	Z24	X25	Y25	Z25	X26	Y26	Z26	X27	Y27	Z27	X28	Y28	Z28	X29	Y29	Z29	X30	Y30	Z30	X31	Y31	Z31	X32	Y32	Z32	X33	Y33	Z33	X34	Y34	Z34	X35	Y35	Z35	X36	Y36	Z36	X37	Y37	Z37	X38	Y38	Z38	X39	Y39	Z39	X40	Y40	Z40	X41	Y41	Z41	X42	Y42	Z42	X43	Y43	Z43	X44	Y44	Z44	X45	Y45	Z45	X46	Y46	Z46	X47	Y47	Z47	X48	Y48	Z48	X49	Y49	Z49	X50	Y50	Z50	X51	Y51	Z51	X52	Y52	Z52	X53	Y53	Z53	X54	Y54	Z54	X55	Y55	Z55	X56	Y56	Z56	X57	Y57	Z57	X58	Y58	Z58	X59	Y59	Z59	X60	Y60	Z60	X61	Y61	Z61	

1545	7.72	-276.5577697753907	2134.503662109375	-941.0228271484377	-411.932830810547	2032.60107421875	-986.5403442382815	-394.2592773437501	2039.638061523438	-841.0825195312502	-426.259002685547	1889.46435546875	-891.3421630859377	-409.8026733398439	1606.458251953125	-880.9338378906252	-276.2958984375001	1893.938354492188	-912.042419433594	-323.9239501953126	1923.867797851563	-1065.259765625	-301.9719848632813	1750.407592773438	-1241.50732421875	-261.7254638671876	1724.90087890625	-1221.148559570313	-276.7809143066407	1689.4921875	-1266.254516601563	-260.2128295898438	1628.28271484375	-1279.5771484375	-340.2326965332032	1600.7041015625	-1277.775146484375	-270.7546691894532	1387.962280273438	-1106.607421875	-219.8858795166016	1355.436645507813	-1148.364135742188	-250.7916564941407	1360.729858398438	-1041.808227539063	-288.3164062500001	1925.720336914063	-750.6792602539064	-244.1733093261719	1748.6455078125	-598.2685546875001	-232.4751434326172	1707.9345703125	-623.4713134765626	-243.2175598144532	1683.922973632813	-569.7866210937501	-240.524398803711	1610.360717773438	-549.4661865234376	-324.7813720703126	1601.529296875	-537.8538818359376	-296.1674499511719	1361.267944335938	-673.8801269531251	-243.3138580322266	1331.111450195313	-635.9535522460939	-257.7984313964844	1347.240966796875	-732.6593627929689	-256.2718811035157	1420.880249023438	-1004.054809570313	-261.7817382812501	1420.693725585938	-766.1788940429689	-418.203826904297	1478.751953125	-887.5433349609377	-432.930877685547	1452.093872070313	-916.837585449219	-434.901336669922	1449.78173828125	-861.1513671875002	-344.1266174316407	1095.244506835938	-1096.552490234375	-322.5143432617188	1012.897888183594	-1097.754760742188	-275.0313415527344	1011.682067871094	-1078.923706054688	-355.1426391601563	965.8559570312502	-1078.65576171875	-358.8814392089844	903.6531372070315	-1077.814697265625	-326.7642822265626	880.7403564453127	-962.5316162109377	-312.9225769042969	709.7811889648439	-1047.2822265625	-370.8814697265626	675.9976806640626	-1107.448852539063	-329.0408020019532	669.2976684570314	-1088.140747070313	-332.0290527343751	584.9498291015626	-1071.349243164063	-415.8609008789064	451.3304443359376	-1093.67919921875	-358.6730346679688	455.8799743652345	-1037.188598632813	-454.0528869628907	439.9374389648439	-1032.093872070313	-270.4755554199219	341.2118530273438	-1066.548583984375	-278.3762512207032	332.7252502441407	-1116.487426757813	-335.8284912109376	321.1058654785157	-1142.67919921875	-358.5838012695313	1143.037353515625	-702.6467285156251	-327.6286010742188	1084.281127929688	-690.6228027343751	-294.1590270996094	1083.019897460938	-689.8656005859376	-359.6210632324219	1006.695373535156	-713.5795898437501	-353.8421630859376	868.281188964844	-715.8701782226564	-327.6446228027344	863.540710449219	-834.4463500976565	-300.3942260742188	694.2199707031251	-720.2440185546876	-378.8993225097657	611.5601196289064	-699.5382080078126	-331.3878479003907	616.9743652343751	-697.1090087890626	-311.8137207031251	566.0659790039064	-719.2872924804689	-374.4605407714844	437.4959716796876	-699.7462158203126	-325.3625488281251	443.9058532714845	-766.9822387695314	-417.0123291015626	411.6002502441407	-779.730163574219	-219.2637329101563	347.7922668457032	-715.8848266601564	-233.1392822265626	347.6513671875001	-670.8836669921876	-289.0934448242188	331.0116577148438	-645.3256835937501	
1546	7.725000000000001	-278.1728820800782	2134.4423828125	-941.0864868164065	-412.7204895019532	2032.436401367188	-986.9961547851565	-395.5004272460939	2039.54638671875	-841.567810058594	-426.9418945312501	1889.325927734375	-891.5888671875002	-409.7130737304689	1606.267333984375	-880.8437500000002	-276.8835754394532	1893.857543945313	-912.252380371094	-324.4377136230469	1923.572387695313	-1065.833618164063	-301.9141845703126	1749.761474609375	-1241.585815429688	-261.6853332519532	1724.748046875	-1221.129516601563	-276.5627441406251	1688.86181640625	-1266.239990234375	-259.8034057617188	1627.895263671875	-1279.616577148438	-339.6058044433594	1600.050659179688	-1277.81201171875	-269.8181457519532	1387.629638671875	-1106.2841796875	-219.4465332031251	1355.445190429688	-1148.18603515625	-249.9883728027344	1360.62939453125	-1041.482666015625	-288.9988403320313	1925.568725585938	-750.6474609375001	-244.7964172363282	1748.711791992188	-597.9754638671876	-233.0968017578126	1708.020874023438	-623.2091064453126	-243.7224884033204	1683.9609375	-569.5077514648439	-240.8947906494141	1610.489379882813	-549.1380615234376	-324.9083251953126	1601.466430664063	-537.6057128906251	-296.3400573730469	1361.435546875	-673.5241699218751	-243.5923919677735	1331.192626953125	-635.3513793945314	-257.7203979492188	1347.4619140625	-732.2081909179689	-256.1677856445313	1420.71875	-1003.987609863281	-261.4507751464844	1420.624145507813	-765.7381591796876	-418.086151123047	1478.96630859375	-887.3078613281252	-432.7179260253907	1452.006958007813	-916.7648925781252	-434.473602294922	1449.683959960938	-860.9285278320315	-344.2240600585938	1095.162719726563	-1096.531005859375	-322.4531860351563	1012.864501953125	-1097.8681640625	-274.8958129882813	1011.777099609375	-1079.320556640625	-354.9478149414063	965.769958496094	-1078.6875	-358.4641723632813	903.6002197265627	-1077.846435546875	-325.6926269531251	880.5749511718752	-962.803161621094	-312.7859191894532	709.5590209960939	-1047.564697265625	-371.1358642578126	675.9157714843751	-1107.456665039063	-329.4073486328126	668.7248535156251	-1088.398193359375	-332.5137939453126	584.4940795898439	-1071.578125	-417.0076293945314	452.2264709472657	-1093.62548828125	-359.2230529785157	455.747039794922	-1037.129150390625	-454.9837036132814	440.3079223632814	-1032.499145507813	-272.0679931640626	340.6745910644532	-1066.298461914063	-279.4579772949219	332.4535827636719	-1116.227294921875	-336.9433593750001	321.3387145996094	-1142.712524414063	-358.0001525878907	1143.099487304688	-702.1870117187501	-327.1636352539063	1084.46630859375	-690.2359008789064	-293.8251342773438	1083.15380859375	-689.3640136718751	-358.9648437500001	1006.848449707031	-713.1057128906251	-353.3934936523438	868.435974121094	-715.5011596679689	-326.6197204589844	863.6665039062502	-834.0027465820315	-300.2080078125001	694.2795410156251	-719.9941406250001	-378.8227539062501	611.7108154296876	-699.3302001953126	-331.2714233398438	617.0440673828126	-696.9295043945314	-311.8142089843751	566.1270141601564	-719.1004028320314	-374.7406921386719	437.7389526367189	-699.5206298828126	-325.7518920898438	443.9632873535157	-766.9039916992189	-417.4402465820314	411.6387023925782	-779.3365478515627	-219.6071014404297	347.9525756835938	-716.0064086914064	-233.4114074707032	347.9126586914063	-671.0664062500001	-289.2850952148438	331.3056030273438	-645.1325683593751	
1547	7.73	-279.1029968261719	2134.39697265625	-941.2054443359377	-413.5120544433595	2031.981811523438	-987.4314575195315	-396.7709045410157	2039.145141601563	-842.0120239257815	-427.5848388671876	1888.898803710938	-891.846374511719	-409.729705810547	1605.817504882813	-880.7055664062502	-277.4267883300782	1893.995849609375	-912.3684082031252	-324.9079589843751	1923.076416015625	-1066.437866210938	-302.0817260742188	1748.9677734375	-1241.765014648438	-261.5448303222657	1724.193481445313	-1221.402709960938	-276.2593383789063	1688.072021484375	-1266.34912109375	-259.3580932617188	1627.46533203125	-1279.589233398438	-339.2451477050782	1599.451293945313	-1277.783569335938	-269.0513000488282	1387.098876953125	-1105.9990234375	-218.7910461425782	1354.985107421875	-1147.9150390625	-249.5483398437501	1360.25830078125	-1041.287231445313	-289.6748657226563	1925.2763671875	-750.6458129882814	-245.3995666503907	1748.504638671875	-597.6398315429689	-233.6119537353516	1707.770263671875	-623.0595703125001	-244.2979125976563	1683.728881835938	-569.1126708984376	-241.1896057128907	1610.399536132813	-549.0225219726564	-325.4392089843751	1601.554443359375	-537.0541992187501	-296.4100036621094	1361.44140625	-673.2673339843751	-243.7730560302735	1331.147216796875	-634.9192504882814	-257.7078552246094	1347.379760742188	-731.7518310546876	-256.1514282226563	1420.266357421875	-1003.8984375	-261.3747863769532	1420.232177734375	-765.4528808593751	-417.8148498535157	1478.22119140625	-887.1739501953127	-432.6523437500001	1451.632080078125	-916.5706176757815	-433.8331298828126	1449.290771484375	-860.6608886718752	-344.3460083007813	1094.885986328125	-1096.433227539063	-322.4516296386719	1012.623840332031	-1097.928100585938	-274.8451538085938	1011.759521484375	-1079.57421875	-354.8240356445313	965.4653320312502	-1078.637939453125	-358.0971069335938	903.3365478515627	-1078.0703125	-324.7632751464844	880.1953125000002	-962.9395141601565	-312.6397705078126	709.2651977539064	-1047.77734375	-371.2867126464844	675.6641235351564	-1107.496948242188	-329.5860595703126	668.3828125000001	-1088.513671875	-332.8407287597657	584.1505126953126	-1071.660888671875	-417.6135253906251	452.1644287109376	-1093.837524414063	-360.1457214355469	455.4730224609376	-1037.05859375	-456.1815490722657	440.3609313964845	-1032.9912109375	-273.5690307617188	340.0041198730469	-1066.02734375	-280.6524658203126	331.8803100585938	-1116.114624023438	-337.8596191406251	321.2383422851563	-1142.8818359375	-357.5838012695313	1143.001586914063	-701.8964843750001	-326.8426513671876	1084.370483398438	-689.8880004882814	-293.5803833007813	1082.901489257813	-689.0046997070314	-358.5792236328126	1006.785949707031	-712.8100585937501	-352.9661865234376	868.3643798828127	-715.1613769531251	-325.7007751464844	863.5201416015627	-833.6401367187502	-300.0435485839844	694.1151123046876	-719.8090820312501	-378.7038574218751	611.5888671875001	-698.9884033203126	-331.1697082519532	616.8878173828126	-696.6730346679689	-311.8416442871094	565.8662719726564	-718.8942871093751	-374.9920654296876	437.8400878906251	-699.2773437500001	-326.0554504394532	443.7626953125001	-766.7352294921876	-417.9385681152345	411.5413208007814	-778.9265747070315	-220.3745880126954	347.7838745117188	-716.2780151367189	-233.8835754394532	347.4492492675782	-671.4383544921876	-289.5953369140626	331.2802429199219	-644.8233032226564	
1548	7.735	-280.3167724609376	2133.92578125	-941.3763427734377	-414.4890441894532	2031.338745117188	-987.8077392578127	-398.0775756835939	2038.526489257813	-842.341735839844	-428.301483154297	1888.101806640625	-892.2399902343752	-409.6123352050782	1605.170288085938	-880.541198730469	-278.0958251953126	1893.482177734375	-912.4788208007815	-325.5081787109376	1922.273315429688	-1067.036987304688	-302.0836791992188	1748.086059570313	-1241.94384765625	-261.3650207519532	1723.626586914063	-1221.729248046875	-275.9349975585938	1687.125732421875	-1266.61572265625	-258.9906311035157	1626.391357421875	-1279.613037109375	-338.6701049804688	1598.381103515625	-1277.891235351563	-268.4613952636719	1386.478393554688	-1105.744140625	-218.3298492431641	1354.465087890625	-1147.82177734375	-248.8278198242188	1359.223388671875	-1040.974365234375	-290.6263122558594	1924.778076171875	-750.5906982421876	-246.1771545410157	1748.092407226563	-597.5885009765626	-234.0902862548829	1707.332275390625	-622.9102783203126	-244.7782135009766	1683.348510742188	-568.7928466796876	-241.6025695800782	1610.052734375	-548.8212280273439	-325.8279113769532	1601.168701171875	-536.7149047851564	-296.3002929687501	1361.200805664063	-672.9160156250001	-243.8354949951172	1330.883544921875	-634.3683471679689	-257.6356506347657	1346.988403320313	-731.2383422851564	-256.1676330566407	1419.461791992188	-1003.865905761719	-261.0743713378907	1419.735717773438	-764.9526977539064	-417.7721557617189	1477.984252929688	-886.8879394531252	-432.5481872558595	1450.792358398438	-916.3563232421877	-432.8726501464845	1448.413818359375	-860.271423339844	-344.5194396972657	1094.287109375	-1096.193359375	-322.4729614257813	1012.178405761719	-1097.86083984375	-274.5981445312501	1011.256958007813	-1079.91455078125	-354.6728820800782	964.9686279296877	-1078.60986328125	-357.2597351074219	902.9798583984377	-1078.083862304688	-322.9655151367188	879.3599853515627	-963.060974121094	-312.5835876464844	708.4664916992189	-1047.817749023438	-371.2649230957032	675.1729125976564	-1107.571899414063	-329.5349731445313	667.9782714843751	-1088.409912109375	-333.0603027343751	583.6282348632814	-1071.623046875	-418.1463317871095	451.9811401367189	-1094.247192382813	-361.4496459960938	454.602752685547	-1037.13916015625	-457.0966796875001	440.2108154296876	-1033.792358398438	-274.8590087890626	338.8775939941407	-1065.722778320313	-281.7399902343751	330.9964294433594	-1115.81103515625	-338.7464294433594	320.7998962402344	-1143.126708984375	-357.2613525390626	1142.685913085938	-701.7150268554689	-326.4848937988282	1084.028198242188	-689.7163085937501	-293.2968750000001	1082.592529296875	-688.7064208984376	-357.9619140625001	1006.727783203125	-712.3040771484376	-352.5346984863282	868.0015258789065	-714.8060302734376	-324.8376770019532	863.1403808593752	-833.3609008789065	-299.7591552734376	693.6968994140626	-719.6215209960939	-378.6335449218751	611.3657226562501	-698.4515380859376	-330.9427795410157	616.5192871093751	-696.3654174804689	-311.7949829101563	565.4332275390626	-718.6179199218751	-375.1019592285157	437.5654907226564	-698.9419555664064	-326.3361206054688	443.3004760742189	-766.4653320312501	-418.4291076660157	411.3248901367189	-778.3642578125002	-220.8856506347657	347.1324768066407	-716.3364257812501	-234.1767883300782	346.5918579101563	-671.3944702148439	-290.0805664062501	330.9965820312501	-644.5930786132814	
